<svg width="77" height="71" viewBox="0 0 77 71" fill="none" xmlns="http://www.w3.org/2000/svg">
<g clip-path="url(#clip0_209_432)">
<path d="M38.5 5.91669C20.79 5.91669 6.41663 19.17 6.41663 35.5C6.41663 51.83 20.79 65.0834 38.5 65.0834C56.21 65.0834 70.5833 51.83 70.5833 35.5C70.5833 19.17 56.21 5.91669 38.5 5.91669ZM38.5 14.7917C43.8258 14.7917 48.125 18.7559 48.125 23.6667C48.125 28.5775 43.8258 32.5417 38.5 32.5417C33.1741 32.5417 28.875 28.5775 28.875 23.6667C28.875 18.7559 33.1741 14.7917 38.5 14.7917ZM38.5 56.8C30.4791 56.8 23.3887 53.0134 19.25 47.2742C19.3462 41.3871 32.0833 38.1625 38.5 38.1625C44.8845 38.1625 57.6537 41.3871 57.75 47.2742C53.6112 53.0134 46.5208 56.8 38.5 56.8Z" fill="black"/>
</g>
<defs>
<clipPath id="clip0_209_432">
<rect width="77" height="71" fill="white"/>
</clipPath>
</defs>
</svg>
